<svg xmlns="http://www.w3.org/2000/svg" width="30" height="22" viewBox="0 0 30 22">
  <path fill="#FFFFFF" fill-rule="evenodd" d="M46.5147186,170 L52.7018331,163.812886 C53.09527,163.419449 53.0985973,162.784889 52.7029275,162.389219 L51.711286,161.397578 C51.3184536,161.004745 50.6855985,161.000693 50.2922769,161.394015 L40.7506577,170.935634 C40.1628245,171.523467 40.1580235,172.471732 40.7506577,173.064366 L50.2922769,182.605985 C50.6831416,182.99685 51.3156163,182.998092 51.711286,182.602422 L52.7029275,181.610781 C53.09576,181.217949 53.0998281,180.58511 52.7018331,180.187114 L46.5147186,174 L68.4951636,174 C69.3262618,174 70,173.321455 70,172.499167 L70,171.500833 C70,170.671946 69.322459,170 68.4951636,170 L46.5147186,170 Z" transform="translate(-40 -161)"/>
</svg>
