<svg xmlns="http://www.w3.org/2000/svg" width="1000" height="233" viewBox="0 0 1000 233">
  <g fill="#FFFFFF" fill-rule="evenodd" transform="translate(-.46 .475)">
    <path fill-rule="nonzero" d="M987.18004 2.69322C994.84165 3.97423 999.9596 8.66406 999.9596 16.73848 999.9596 19.41077 998.85862 23.17348 998.12227 26.35378 992.98859 48.98373 972.93993 128.942 964.49935 182.3114L956.7326 174.54465 981.45199 10.37996 987.18004 2.69322zM487.5761 24.41967C477.22958 26.89729 467.07025 26.82923 457.08309 24.41967L472.93946 40.88589 487.5761 24.41967zM329.06433 24.41967C339.41085 26.89729 349.57018 26.82923 359.55734 24.41967L343.70098 40.88589 329.06433 24.41967zM239.565 24.35533C262.94799 83.53304 299.74653 173.10495 318.08209 207.33957L290.93811 199.0451 223.7731 31.07861 239.565 24.35533z"/>
    <path fill-rule="nonzero" d="M218.3033,24.35057 C225.7711,26.8524 231.9651,27.00578 239.5671,24.35057 L224.4543,33.63429 L218.3033,24.35057 Z"/>
    <path fill-rule="nonzero" d="M229.0425,30.80911 L297.48111,198.65882 C293.43187,203.0442 291.62613,205.34526 287.68914,207.39671 C267.85268,156.30538 246.5503,105.20124 228.5032,54.76966 L219.5945,39.66617 L229.0425,30.80911 Z"/>
    <path fill-rule="nonzero" d="M170.1818 207.33298L149.9778 200.17713 221.1191 33.26264 229.0473 30.81143 229.0473 55.52253C217.9852 87.44175 189.912 157.4743 170.1818 207.33298L170.1818 207.33298zM153.4247.02527L160.1331 15.27177 177.2092 7.34359 184.1535.02527C173.1686 2.51709 163.2609 2.59991 153.4247.02527z"/>
    <path fill-rule="nonzero" d="M105.2457,132.97476 L93.6583,137.24378 L86.34,124.43672 L158.9134,8.56331 L164.102,6.78612 C171.2638,5.16767 179.075,3.43207 184.1627,0.02527 C172.6373,15.59469 130.6699,88.3688 105.2457,132.97476 L105.2457,132.97476 Z"/>
    <path fill-rule="nonzero" d="M89.3893,131.14518 L92.4386,128.09588 L164.2333,6.76001 L153.4247,0.02527 C144.7565,16.17082 112.7865,68.41711 92.4386,101.8719 L82.6808,120.1677 L89.3893,131.14518 Z"/>
    <path fill-rule="nonzero" d="M31.4526,0.02527 C47.3687,28.23209 71.8015,67.69217 92.4386,101.8719 L92.4386,128.09588 L87.5597,132.97476 L16.2061,6.12387 L31.4526,0.02527 Z"/>
    <path fill-rule="nonzero" d="M19.692,7.697 L31.4526,0.02527 C18.8327,2.7167 13.5536,2.88801 0.9596,0.02527 L5.8385,5.51401 L19.692,7.697 Z"/>
    <path fill-rule="nonzero" d="M92.4386,128.09588 L86.9499,136.02406 L79.6315,132.97476 C66.0063,109.42526 25.954,37.68791 0.9596,0.02527 C6.0261,3.69663 12.871,5.71124 20.7766,6.99518 L92.4386,128.09588 Z"/>
    <polygon fill-rule="nonzero" points="107.075 231.162 86.34 221.404 88.17 134.804 92.439 128.096 105.246 132.975"/>
    <polygon fill-rule="nonzero" points="92.439 224.454 77.802 231.162 79.632 132.975 92.439 128.096"/>
    <path fill-rule="nonzero" d="M140.0077 207.37768C165.4512 155.51323 193.7447 85.96278 218.3018 24.34057L229.0473 30.81472 159.5852 200.73594 145.4965 205.5481 140.0077 207.37768zM296.75382 198.35389L318.10599 207.3464C309.91519 205.28153 298.82791 204.48975 287.68567 207.3988L291.85449 197.1315 296.75382 198.35389zM181.485 147.37764L196.4974 140.93605C218.1221 141.69618 239.7468 141.68527 261.37148 140.93605L276.59951 147.56627 262.42262 150.66582 192.2389 150.66582 181.485 147.37764z"/>
    <path fill-rule="nonzero" d="M191.4843 153.7114L181.4041 147.37764C213.0772 146.89323 244.7979 146.93269 276.57255 147.56627L266.49241 153.7114C241.4897 152.9012 216.487 152.99823 191.4843 153.7114L191.4843 153.7114zM359.55734 207.37768L338.21224 200.05936 338.21224 36.00701 344.31084 32.95771 359.55734 24.41967C356.39366 85.29773 356.32434 146.28398 359.55734 207.37768L359.55734 207.37768z"/>
    <path fill-rule="nonzero" d="M344.31084 198.83964L344.31084 203.10866 329.06433 207.37768C331.48873 146.48865 331.71993 85.51191 329.06433 24.41967L344.31084 32.95771 344.31084 198.83964zM457.08309 207.37768L478.4282 200.05936 478.4282 36.00701 472.3296 32.95771 457.08309 24.41967C460.24677 85.29773 460.31609 146.28398 457.08309 207.37768L457.08309 207.37768z"/>
    <path fill-rule="nonzero" d="M344.37097 115.52008L357.18677 109.80617C391.24406 110.66455 425.34146 110.6004 459.4706 109.80617L472.32683 115.52008 456.42499 119.3203 357.07896 119.3203 344.37097 115.52008zM595.21107 24.35124C535.31565 24.35124 505.42824 61.79872 505.42824 116.24953 505.42824 184.44682 550.66539 208.07158 594.42969 208.07158 646.41306 208.07158 683.67892 178.82288 683.67892 116.42108 683.67892 56.36457 648.40437 24.35124 595.21107 24.35124L595.21107 24.35124zM593.41961 33.04175C593.98255 33.03015 594.55081 33.04175 595.11578 33.04175 634.6735 33.04175 663.72503 59.98555 663.72503 116.28764 663.72503 172.51863 634.71161 199.45731 595.19201 199.45731 552.07235 199.45731 526.73522 168.55826 526.73522 116.44011 526.73522 57.4961 557.95429 33.76834 593.41961 33.04175L593.41961 33.04175z"/>
    <path fill-rule="nonzero" d="M595.00143 21.94992C530.31306 21.94992 496.37563 62.96593 496.37563 116.13518 496.37563 174.33132 533.42605 209.82493 594.90614 209.82493 661.37427 209.82493 693.83687 169.82415 693.83687 116.74504 693.83687 57.56483 655.0685 21.94992 595.00143 21.94992zM595.19201 28.0104C646.2673 28.0104 680.13411 58.7368 680.13411 116.40199 680.13411 176.3191 644.34319 204.41242 594.42969 204.41242 552.40798 204.41242 508.97305 181.73136 508.97305 116.24953 508.97305 63.96684 537.68148 28.0104 595.19201 28.0104zM818.72481 14.99367C757.93609 14.99367 716.28735 49.36026 716.28735 116.34485 716.28735 182.0552 755.03389 218.76316 818.97253 218.76316 867.39871 218.76316 920.45709 193.89105 920.45709 117.27867 920.45709 34.59427 862.50239 14.99367 818.72481 14.99367L818.72481 14.99367zM818.40079 22.31199C866.77672 22.31199 902.40901 51.70017 902.40901 116.51634 902.40901 186.975 859.30624 209.82493 818.47702 209.82493 774.85495 209.82493 735.11678 184.22514 735.11678 115.12513 735.11678 43.50396 779.16276 22.31199 818.40079 22.31199L818.40079 22.31199z"/>
    <path fill-rule="nonzero" d="M818.32456 10.93432C753.90431 10.93432 704.66189 47.51379 704.66189 115.52532 704.66189 171.56042 737.4165 220.87864 818.85818 220.87864 887.80744 220.87864 932.82578 182.97127 932.82578 116.51634 932.82578 53.84956 890.83002 10.93432 818.32456 10.93432L818.32456 10.93432zM818.72481 17.75713C861.312 17.75713 917.69363 36.84264 917.69363 117.27867 917.69363 191.80783 866.06281 215.99976 818.9535 215.99976 756.75345 215.99976 719.06983 180.28746 719.06983 116.36388 719.06983 51.20076 759.58906 17.75713 818.72481 17.75713L818.72481 17.75713zM937.79955 217.84453C937.79955 209.97581 942.58464 202.65859 952.17713 202.65859 961.35881 202.65859 968.22925 208.14977 968.22925 216.92071 968.22925 227.84843 960.99753 231.8757 954.37134 231.8757 945.20966 231.8757 937.79955 227.12178 937.79955 217.84453L937.79955 217.84453zM953.1182 180.56598C960.55374 128.00879 965.07658 72.77352 969.41927 17.69798 969.41927 6.72104 976.67466 2.42781 983.99535 2.42781 985.27838 2.42781 987.17065 2.69511 987.17065 2.69511L985.1794 15.86065 959.09971 179.10634 953.1182 180.56598zM77.802 231.16222L92.4659 220.41893 107.0752 231.16222C107.0752 231.16222 98.9765 229.6885 92.4656 229.6885 86.5908 229.6885 77.802 231.16222 77.802 231.16222zM140.0054 207.40031L160.4609 198.55667C163.582 202.29865 166.3586 205.46967 170.192 207.3464 162.8281 205.35374 151.6799 204.45969 140.0077 207.3775L140.0054 207.40031zM329.06433 207.37768C338.96738 204.99124 349.10801 204.88567 359.51922 207.37768L344.31084 198.83964 329.06433 207.37768zM357.18677 122.28507L344.34401 115.52008C387.0041 115.96491 429.66418 116.03968 472.32427 115.52008L459.49815 122.24506C425.39436 121.78694 391.29056 121.80883 357.18677 122.28526L357.18677 122.28507zM472.3296 198.83964L472.3296 203.10866 487.5761 207.37768C485.1517 146.48865 484.9205 85.51191 487.5761 24.41967L472.3296 32.95771 472.3296 198.83964z"/>
    <path fill-rule="nonzero" d="M487.5761 207.37768C477.67305 204.99124 467.53242 204.88567 457.12121 207.37768L472.3296 198.83964 487.5761 207.37768zM959.84484 174.40078L953.08759 180.56598C957.61525 179.76853 961.1167 180.95025 964.51978 182.32164L959.84484 174.40078z"/>
    <path d="M999.592035,15.7382002 C999.592035,22.9089347 992.938177,28.7219377 984.730198,28.7219377 C976.522219,28.7219377 969.868362,22.9089347 969.868362,15.7382002 C969.868362,8.56752672 976.522219,2.75452368 984.730198,2.75452368 C992.938177,2.75452368 999.592035,8.56752672 999.592035,15.7382002 Z"/>
  </g>
</svg>
