<svg xmlns="http://www.w3.org/2000/svg" width="476" height="115" viewBox="0 0 476 115">
  <g fill="#FFFFFF" fill-rule="evenodd">
    <path d="M14.1249,85.4827 C9.6659,78.7387 7.0099,71.3167 6.0329,63.7917 L6.3139,63.0967 C6.3499,63.0087 7.2029,60.9177 8.9069,58.3007 C10.3749,56.0377 12.8229,52.8797 16.1479,50.6827 C19.9169,48.1987 23.8759,47.4327 28.2529,48.3457 C28.9969,48.5007 29.7229,48.6917 30.4369,48.8977 C30.0719,49.8997 29.7119,50.9177 29.3629,51.9587 C25.0299,64.8697 23.4999,76.6197 24.8109,86.8737 C25.5469,92.6247 27.0759,96.9427 28.5029,99.9187 C22.9479,96.2237 18.0299,91.3897 14.1249,85.4827 L14.1249,85.4827 Z M5.6039,56.7447 C5.6779,47.6187 8.1659,38.5977 12.8639,30.6947 C14.7599,30.1837 22.2429,28.8377 37.2559,33.6397 C35.3249,37.1937 33.4619,41.1437 31.7269,45.5097 C30.8309,45.2377 29.9229,44.9927 28.9939,44.7997 C23.6989,43.6857 18.7149,44.6437 14.1539,47.6607 C10.9939,49.7527 8.1479,52.7587 5.6969,56.5947 C5.6649,56.6467 5.6379,56.6957 5.6039,56.7447 L5.6039,56.7447 Z M28.6739,14.131 C29.7619,13.409 30.8719,12.754 31.9889,12.128 C32.2439,13.11 32.7049,14.3147 33.5729,15.6277 C35.0409,17.8507 38.0169,20.8247 43.9549,23.0477 C42.3179,25.2767 40.6809,27.7307 39.0739,30.4407 C27.5349,26.6857 19.8889,26.3107 15.5379,26.6537 C19.0419,21.8567 23.4369,17.5937 28.6739,14.131 L28.6739,14.131 Z M61.7579,5.836 C61.5159,5.99 61.2749,6.135 61.0359,6.295 C57.2349,8.807 51.8639,13.118 46.2849,20.0207 C41.7029,18.4827 38.3539,16.2887 36.5919,13.631 C35.8569,12.52 35.5459,11.546 35.4089,10.921 C35.3669,10.715 35.3419,10.55 35.3279,10.406 C43.7619,6.469 52.8869,5.012 61.7579,5.836 L61.7579,5.836 Z M65.7869,7.624 C66.1579,7.415 66.4669,7.244 66.7199,7.106 C66.9819,6.962 67.1889,6.849 67.3429,6.757 L67.4769,6.679 C79.1959,9.095 90.0719,15.5767 97.8169,25.6307 C95.1349,24.7077 92.4829,24.1027 90.3989,23.7247 C86.0839,22.9457 81.7339,22.6667 78.4689,22.9617 C73.2379,23.4367 62.7169,24.3837 50.0679,21.1287 C55.0029,15.2677 59.6809,11.535 63.0519,9.302 C63.9519,8.707 64.8469,8.158 65.7869,7.624 L65.7869,7.624 Z M65.1499,112.4297 C65.1879,111.6267 65.2239,110.0397 65.2589,108.5117 C65.2629,108.3007 65.2689,108.0977 65.2739,107.8907 C55.0659,109.5277 44.5969,108.0507 35.2899,103.7207 L35.3209,103.6957 L34.5719,102.8787 C34.5529,102.8587 34.1119,102.3727 33.4639,101.3917 C32.0079,99.1887 29.4109,94.3127 28.4009,86.4167 C27.1619,76.7087 28.6389,65.5017 32.7949,53.1097 C33.1349,52.0917 33.4869,51.1047 33.8409,50.1287 C35.8479,51.0137 37.7399,52.1337 39.5459,53.5207 C42.6359,55.8987 45.4279,59.0057 48.0829,63.0247 C49.7199,65.5007 51.2149,68.2067 52.5909,70.9797 L57.2229,72.2877 C55.4219,68.3827 53.4029,64.5067 51.1039,61.0267 C48.2229,56.6697 45.1639,53.2757 41.7519,50.6517 C39.6919,49.0687 37.4749,47.7697 35.1299,46.7537 C36.8909,42.3337 38.7839,38.3707 40.7429,34.8207 C44.0949,36.0157 47.7689,37.4917 51.8019,39.3247 C53.7909,40.2307 55.7209,41.1497 57.6209,42.0697 L58.9329,38.6847 C57.0909,37.7947 55.2219,36.9067 53.2999,36.0317 C49.4329,34.2697 45.8669,32.8297 42.5799,31.6397 C44.2389,28.8907 45.9269,26.4197 47.6069,24.2047 C61.5369,28.1097 73.1399,27.0767 78.7969,26.5627 C81.7109,26.3007 85.8089,26.5687 89.7559,27.2857 C94.1739,28.0867 98.1759,29.3867 101.028,30.9407 L101.605,31.2547 C102.932,33.5437 104.049,35.8987 104.988,38.2947 C106.994,38.5357 109.312,39.0107 111.51,39.9357 C109.949,34.9727 107.696,30.1387 104.687,25.5867 C87.3269,-0.672 51.8409,-7.913 25.5829,9.455 C-0.6741,26.8197 -7.9091,62.3127 9.4509,88.5727 C21.9849,107.5337 43.9609,116.5717 65.0949,113.6037 L65.1499,112.4297 Z"/>
    <path d="M93.5732 100.2981C92.7172 100.2981 89.7532 100.2201 88.9432 100.1841 91.0412 95.0071 93.2922 89.3781 93.5732 88.2811 93.8532 89.3781 96.1032 95.0071 98.2022 100.1841 97.3932 100.2201 94.4272 100.2981 93.5732 100.2981M105.819 108.6511C103.011 103.3901 97.0352 88.8671 95.3232 84.5921 95.2302 84.3661 95.1432 84.1541 95.0862 83.9971 95.0732 84.0001 95.0662 84.0061 95.0562 84.0111 94.5992 84.1851 94.1002 84.2751 93.5662 84.2751 93.0392 84.2751 92.5482 84.1851 92.0892 84.0111 92.0792 84.0061 92.0712 84.0001 92.0622 83.9971 92.0012 84.1541 91.9142 84.3661 91.8242 84.5921 90.1092 88.8671 84.1332 103.3901 81.3252 108.6511 81.2052 108.8821 80.9962 109.2791 80.9282 109.4061 81.6092 109.2171 82.3292 109.1211 83.0882 109.1211 83.8372 109.1211 84.5482 109.2171 85.2202 109.4041 85.4512 108.8061 86.7452 105.6561 88.2482 101.9591 88.8942 101.9421 89.6202 101.9161 90.2632 101.9051 91.1062 101.8951 92.7072 101.8901 93.5452 101.8901L93.6012 101.8901C94.4402 101.8901 96.0402 101.8951 96.8832 101.9051 97.5242 101.9161 98.2532 101.9421 98.8982 101.9591 100.398 105.6561 101.693 108.8061 101.926 109.4041 102.598 109.2171 103.31 109.1211 104.055 109.1211 104.817 109.1211 105.534 109.2171 106.216 109.4061 106.15 109.2791 105.942 108.8821 105.819 108.6511M74.2212 112.4791C73.4742 112.4791 72.7632 112.5691 72.0922 112.7581 72.1652 111.2061 72.2342 106.8441 72.2982 105.2661 72.3622 103.6821 72.3952 101.9191 72.3952 100.2841L72.3952 99.0591C71.7132 97.8751 71.0182 96.6861 70.3182 95.4851 69.3912 93.8991 68.4192 92.2491 67.4972 90.6841 66.5722 89.1191 65.2402 86.9511 64.4322 85.6081 63.3952 83.8811 62.5372 82.5631 62.1022 81.9211 61.7582 81.4151 61.5142 81.0571 61.2412 80.6361 61.9212 80.8271 62.6412 80.9241 63.3982 80.9241 64.1582 80.9241 64.8782 80.8321 65.5562 80.6421 67.4552 83.9831 73.8902 94.1811 74.2212 94.7751 74.5522 94.1811 80.9862 83.9761 82.8852 80.6361 83.5642 80.8271 84.2812 80.9241 85.0422 80.9241 85.7992 80.9241 86.5182 80.8271 87.1992 80.6361 86.9262 81.0571 86.6872 81.4151 86.3422 81.9211 85.9042 82.5631 85.0462 83.8811 84.0102 85.6081 83.2042 86.9511 81.8682 89.1191 80.9472 90.6841 80.0192 92.2491 79.0512 93.8991 78.1252 95.4851 77.4242 96.6861 76.7302 97.8751 76.0452 99.0591L76.0502 100.2841C76.0502 101.9191 76.0812 103.6821 76.1432 105.2661 76.2062 106.8441 76.2762 111.2061 76.3522 112.7581 75.6792 112.5691 74.9692 112.4791 74.2212 112.4791M112.094 83.9911C112.014 85.6821 111.932 87.4141 111.87 88.9181 111.808 90.4561 111.777 92.0481 111.777 93.6501L111.77 95.8401C112.903 95.8631 114.008 95.8821 115.079 95.9021 116.339 95.9271 117.645 95.9401 118.998 95.9401 120.351 95.9401 121.655 95.9271 122.915 95.9021 123.986 95.8821 125.088 95.8631 126.224 95.8401L126.217 93.6501C126.217 92.0481 126.185 90.4561 126.123 88.9181 126.063 87.4141 125.981 85.6821 125.903 83.9911 126.581 84.1831 127.3 84.2791 128.051 84.2791 128.812 84.2791 129.532 84.1851 130.212 83.9951 130.136 85.6081 130.083 87.3441 130.018 88.8971 129.955 90.4501 129.924 92.0351 129.924 93.6501L129.924 99.9651C129.924 101.5791 129.955 103.1731 130.018 104.7381 130.083 106.3031 130.15 107.8791 130.227 109.3961 129.546 109.2051 128.823 109.1121 128.061 109.1121 127.307 109.1121 126.592 109.2051 125.913 109.3981 125.99 107.8481 126.063 106.2301 126.123 104.7161 126.185 103.1671 126.217 101.5701 126.217 99.9651L126.217 97.5871C125.087 97.5661 123.976 97.5521 122.907 97.5401 121.638 97.5291 120.322 97.5211 118.998 97.5211 117.672 97.5211 116.358 97.5291 115.086 97.5401 114.018 97.5521 112.91 97.5661 111.777 97.5871L111.777 99.9651C111.777 101.5701 111.808 103.1671 111.87 104.7161 111.932 106.2301 112.003 107.8481 112.081 109.3981 111.404 109.2051 110.687 109.1121 109.932 109.1121 109.171 109.1121 108.449 109.2051 107.77 109.3961 107.843 107.8791 107.911 106.3031 107.976 104.7381 108.038 103.1731 108.07 101.5791 108.07 99.9651L108.07 93.6501C108.07 92.0351 108.038 90.4501 107.976 88.8971 107.911 87.3441 107.858 85.6081 107.781 83.9951 108.462 84.1851 109.181 84.2791 109.944 84.2791 110.695 84.2791 111.413 84.1831 112.094 83.9911M154.452 101.9141C153.959 103.3651 153.275 104.5671 152.395 105.5111 151.516 106.4591 150.486 107.1581 149.302 107.6141 148.117 108.0711 146.836 108.2991 145.452 108.2991 144.092 108.2991 142.822 108.0711 141.637 107.6141 140.454 107.1581 139.425 106.4591 138.543 105.5111 137.665 104.5671 136.981 103.3651 136.49 101.9141 135.995 100.4651 135.75 98.7441 135.75 96.7551 135.75 94.7641 135.995 93.0421 136.49 91.5951 136.981 90.1441 137.665 88.9451 138.543 87.9981 139.425 87.0501 140.454 86.3511 141.637 85.8931 142.822 85.4401 144.092 85.2101 145.452 85.2101 146.836 85.2101 148.117 85.4401 149.302 85.8931 150.486 86.3511 151.516 87.0501 152.395 87.9981 153.275 88.9451 153.959 90.1441 154.452 91.5951 154.944 93.0421 155.191 94.7641 155.191 96.7551 155.191 98.7441 154.944 100.4651 154.452 101.9141M158.432 91.2271C157.748 89.6101 156.788 88.2391 155.555 87.1211 154.323 86.0031 152.847 85.1521 151.13 84.5681 149.412 83.9831 147.518 83.6921 145.452 83.6921 143.409 83.6921 141.528 83.9831 139.808 84.5681 138.093 85.1521 136.616 86.0031 135.383 87.1211 134.151 88.2391 133.193 89.6101 132.507 91.2271 131.821 92.8441 131.478 94.6881 131.478 96.7551 131.478 98.8201 131.821 100.6641 132.507 102.2821 133.193 103.9011 134.151 105.2701 135.383 106.3881 136.616 107.5071 138.093 108.3391 139.808 108.8871 141.528 109.4341 143.409 109.7081 145.452 109.7081 147.518 109.7081 149.412 109.4341 151.13 108.8871 152.847 108.3391 154.323 107.5071 155.555 106.3881 156.788 105.2701 157.748 103.9011 158.432 102.2821 159.117 100.6641 159.46 98.8201 159.46 96.7551 159.46 94.6881 159.117 92.8441 158.432 91.2271M188.165 102.5131C187.565 104.1501 186.727 105.5001 185.654 106.5671 184.581 107.6341 183.32 108.4251 181.873 108.9361 180.426 109.4511 178.861 109.7081 177.171 109.7081 175.51 109.7081 173.955 109.4511 172.511 108.9361 171.065 108.4251 169.805 107.6341 168.732 106.5671 167.658 105.5001 166.821 104.1501 166.219 102.5131 165.619 100.8781 165.319 98.9391 165.319 96.6961 165.319 94.4531 165.619 92.5171 166.219 90.8791 166.821 89.2441 167.658 87.8961 168.732 86.8261 169.805 85.7591 171.065 84.9691 172.511 84.4531 173.955 83.9441 175.51 83.6851 177.171 83.6851 178.861 83.6851 180.426 83.9441 181.873 84.4531 183.32 84.9691 184.581 85.7591 185.654 86.8261 186.727 87.8961 187.565 89.2441 188.165 90.8791 188.768 92.5171 189.067 94.4531 189.067 96.6961 189.067 98.9391 188.768 100.8781 188.165 102.5131M192.173 90.5811C191.381 88.7721 190.275 87.2441 188.851 85.9941 187.424 84.7431 185.719 83.7941 183.734 83.1391 181.749 82.4881 179.563 82.1581 177.171 82.1581 174.812 82.1581 172.643 82.4881 170.656 83.1391 168.671 83.7941 166.965 84.7431 165.54 85.9941 164.114 87.2441 163.008 88.7721 162.218 90.5811 161.424 92.3921 161.03 94.4481 161.03 96.7591 161.03 99.0691 161.424 101.1261 162.218 102.9351 163.008 104.7431 164.114 106.2721 165.54 107.5231 166.965 108.7751 168.671 109.7031 170.656 110.3141 172.643 110.9271 174.812 111.2331 177.171 111.2331 179.563 111.2331 181.749 110.9271 183.734 110.3141 185.719 109.7031 187.424 108.7751 188.851 107.5231 190.275 106.2721 191.381 104.7431 192.173 102.9351 192.964 101.1261 193.362 99.0691 193.362 96.7591 193.362 94.4481 192.964 92.3921 192.173 90.5811M198.352 110.2376C198.415 110.4986 198.422 110.7846 198.371 111.0986 198.319 111.4126 198.223 111.6836 198.08 111.9116 197.935 112.1396 197.758 112.3276 197.543 112.4656 197.33 112.6086 197.084 112.6996 196.812 112.7386 196.54 112.7856 196.244 112.7806 195.93 112.7336 195.621 112.6836 195.344 112.6016 195.096 112.4766 194.85 112.3516 194.646 112.1906 194.489 111.9966 194.327 111.7956 194.217 111.5676 194.152 111.3046 194.087 111.0436 194.08 110.7556 194.132 110.4426 194.183 110.1326 194.281 109.8576 194.424 109.6286 194.568 109.4006 194.745 109.2156 194.96 109.0746 195.174 108.9336 195.418 108.8416 195.694 108.7936 195.967 108.7436 196.261 108.7436 196.569 108.7936 196.884 108.8406 197.163 108.9286 197.409 109.0566 197.655 109.1856 197.857 109.3486 198.018 109.5496 198.177 109.7486 198.287 109.9766 198.352 110.2376M197.072 105.6702C196.79 105.6272 196.522 105.6232 196.27 105.6602 196.404 104.4142 197.134 100.0102 197.716 93.0752 197.882 91.1382 198.306 86.2102 198.573 83.1362 198.576 83.0982 198.6 82.8812 198.614 82.7972 198.617 82.7732 198.628 82.6932 198.631 82.6782 198.682 82.3652 198.777 82.0942 198.921 81.8652 199.065 81.6382 199.241 81.4532 199.457 81.3122 199.67 81.1742 199.913 81.0772 200.188 81.0302 200.463 80.9822 200.756 80.9822 201.069 81.0302L201.071 81.0322C201.384 81.0792 201.662 81.1692 201.907 81.2962 202.151 81.4262 202.355 81.5892 202.515 81.7872 202.673 81.9832 202.785 82.2142 202.848 82.4732 202.914 82.7342 202.92 83.0232 202.869 83.3322 202.851 83.4352 202.838 83.5042 202.826 83.5492 202.818 83.5782 200.905 91.6072 200.449 93.4992 198.807 100.2692 198.111 104.6782 197.842 105.9042 197.614 105.7922 197.36 105.7172 197.076 105.6702L197.072 105.6702zM220.557 107.2747C219.308 107.2747 218.215 107.1297 217.28 106.8437 216.341 106.5527 215.544 106.1567 214.887 105.6477 214.227 105.1397 213.707 104.5317 213.321 103.8327 212.935 103.1287 212.668 102.3627 212.524 101.5257L216.064 101.5257C216.19 102.0327 216.372 102.5127 216.607 102.9617 216.841 103.4077 217.137 103.7927 217.497 104.1207 217.86 104.4467 218.288 104.7037 218.786 104.8907 219.285 105.0777 219.859 105.1707 220.514 105.1707 220.953 105.1707 221.383 105.1277 221.807 105.0357 222.231 104.9457 222.611 104.7957 222.948 104.5957 223.287 104.3907 223.557 104.1267 223.76 103.7947 223.964 103.4637 224.07 103.0597 224.07 102.5797 224.07 101.9627 223.907 101.4207 223.591 100.9517 223.274 100.4767 222.856 100.0477 222.334 99.6617 221.812 99.2727 221.217 98.9077 220.548 98.5727 219.881 98.2367 219.202 97.8997 218.51 97.5567 217.816 97.2147 217.135 96.8597 216.468 96.4917 215.798 96.1207 215.204 95.7037 214.682 95.2457 214.16 94.7817 213.738 94.2637 213.424 93.6877 213.105 93.1097 212.949 92.4477 212.949 91.6987 212.949 90.8807 213.127 90.1267 213.488 89.4277 213.85 88.7327 214.373 88.1297 215.062 87.6217 215.75 87.1127 216.591 86.7127 217.587 86.4247 218.582 86.1387 219.713 85.9937 220.979 85.9937 222.034 85.9937 222.985 86.1387 223.836 86.4247 224.683 86.7127 225.432 87.1057 226.081 87.5987 226.73 88.0947 227.274 88.6777 227.719 89.3497 228.166 90.0237 228.499 90.7467 228.735 91.5267L225.516 91.5267C225.331 91.0357 225.117 90.5727 224.873 90.1267 224.631 89.6867 224.328 89.2957 223.964 88.9617 223.605 88.6267 223.171 88.3597 222.663 88.1617 222.157 87.9647 221.547 87.8667 220.835 87.8667 220.168 87.8667 219.611 87.9537 219.152 88.1257 218.692 88.2997 218.324 88.5167 218.04 88.7807 217.755 89.0457 217.554 89.3417 217.432 89.6687 217.311 89.9947 217.248 90.3167 217.248 90.6347 217.248 91.1777 217.413 91.6757 217.741 92.1247 218.066 92.5727 218.502 92.9837 219.042 93.3617 219.583 93.7427 220.199 94.1067 220.88 94.4597 221.562 94.8097 222.262 95.1627 222.978 95.5157 223.695 95.8737 224.397 96.2437 225.085 96.6257 225.771 97.0107 226.39 97.4337 226.928 97.9007 227.471 98.3667 227.904 98.8827 228.229 99.4547 228.557 100.0167 228.721 100.6577 228.721 101.3677 228.721 102.2047 228.546 102.9787 228.194 103.6977 227.846 104.4107 227.324 105.0357 226.638 105.5687 225.95 106.0997 225.095 106.5177 224.077 106.8217 223.054 107.1237 221.884 107.2747 220.557 107.2747M238.115 96.137L239.784 96.137C240.356 96.137 240.864 96.033 241.299 95.826 241.732 95.621 242.094 95.342 242.383 94.983 242.67 94.631 242.883 94.217 243.026 93.75 243.167 93.287 243.237 92.801 243.237 92.287 243.237 91.676 243.145 91.128 242.958 90.649 242.774 90.168 242.52 89.764 242.19 89.437 241.863 89.109 241.482 88.863 241.042 88.689 240.605 88.514 240.135 88.427 239.637 88.427L238.115 88.427 238.115 96.137zM232.979 86.441L240.237 86.441C241.408 86.441 242.504 86.563 243.523 86.809 244.542 87.054 245.426 87.414 246.179 87.896 246.929 88.376 247.524 88.974 247.954 89.696 248.391 90.418 248.608 91.258 248.608 92.218 248.608 93.188 248.391 94.033 247.963 94.756 247.534 95.473 246.97 96.075 246.273 96.554 245.575 97.034 244.78 97.396 243.882 97.635 242.984 97.875 242.067 97.994 241.128 97.994L238.115 97.994 238.115 106.957 232.979 106.957 232.979 86.441zM263.665 105.676C264.681 105.676 265.576 105.448 266.353 104.992 267.129 104.535 267.778 103.904 268.306 103.091 268.83 102.276 269.227 101.312 269.499 100.197 269.765 99.088 269.899 97.869 269.899 96.556 269.899 95.261 269.765 94.072 269.499 92.988 269.227 91.907 268.83 90.979 268.306 90.2 267.778 89.423 267.129 88.816 266.353 88.387 265.576 87.953 264.681 87.736 263.665 87.736 262.644 87.736 261.739 87.953 260.959 88.387 260.179 88.816 259.527 89.423 259.005 90.2 258.484 90.979 258.089 91.907 257.822 92.988 257.551 94.072 257.418 95.261 257.418 96.556 257.418 97.869 257.551 99.088 257.822 100.197 258.089 101.312 258.484 102.276 259.005 103.091 259.527 103.904 260.179 104.535 260.959 104.992 261.739 105.448 262.644 105.676 263.665 105.676M263.665 107.42C262.545 107.42 261.47 107.297 260.445 107.051 259.423 106.806 258.472 106.459 257.592 106.007 256.713 105.556 255.916 105.008 255.195 104.367 254.47 103.721 253.857 102.997 253.348 102.189 252.842 101.381 252.449 100.505 252.171 99.557 251.895 98.613 251.756 97.612 251.756 96.556 251.756 95.516 251.895 94.535 252.171 93.609 252.449 92.683 252.842 91.829 253.348 91.053 253.857 90.274 254.47 89.571 255.195 88.941 255.916 88.311 256.713 87.781 257.592 87.347 258.472 86.915 259.423 86.581 260.445 86.347 261.47 86.112 262.545 85.993 263.665 85.993 264.787 85.993 265.862 86.112 266.885 86.347 267.909 86.581 268.861 86.918 269.742 87.356 270.619 87.791 271.416 88.324 272.138 88.947 272.862 89.572 273.476 90.274 273.984 91.053 274.491 91.829 274.883 92.678 275.161 93.6 275.437 94.525 275.577 95.498 275.577 96.528 275.577 97.612 275.437 98.635 275.161 99.595 274.883 100.553 274.491 101.439 273.984 102.247 273.476 103.055 272.862 103.777 272.138 104.417 271.416 105.055 270.619 105.596 269.742 106.042 268.861 106.49 267.909 106.832 266.885 107.067 265.862 107.301 264.787 107.42 263.665 107.42M284.708 95.8928L285.822 95.8928C286.447 95.8928 287.022 95.8058 287.555 95.6338 288.089 95.4598 288.548 95.2098 288.938 94.8908 289.331 94.5698 289.637 94.1758 289.86 93.7068 290.086 93.2438 290.199 92.7158 290.199 92.1288 290.199 91.5928 290.115 91.0978 289.941 90.6488 289.771 90.1938 289.535 89.8048 289.229 89.4738 288.929 89.1418 288.568 88.8848 288.156 88.7018 287.74 88.5208 287.283 88.4268 286.786 88.4268L284.708 88.4268 284.708 95.8928zM279.603 86.4408L287.432 86.4408C288.779 86.4408 289.959 86.5798 290.973 86.8598 291.987 87.1348 292.83 87.5238 293.504 88.0228 294.179 88.5258 294.681 89.1148 295.021 89.7978 295.356 90.4808 295.524 91.2228 295.524 92.0308 295.524 92.6088 295.409 93.1568 295.182 93.6828 294.951 94.2038 294.626 94.6828 294.208 95.1218 293.79 95.5598 293.285 95.9468 292.698 96.2868 292.113 96.6288 291.464 96.9108 290.754 97.1318L298.172 106.9568 292.626 106.9568 285.617 97.6638 284.708 97.6638 284.708 106.9568 279.603 106.9568 279.603 86.4408z"/>
    <polygon points="317.313 86.441 317.313 88.184 310.099 88.184 310.099 106.958 304.991 106.958 304.991 88.184 297.776 88.184 297.776 86.441"/>
    <path d="M328.127,107.2747 C326.882,107.2747 325.787,107.1297 324.851,106.8437 C323.912,106.5527 323.116,106.1567 322.46,105.6477 C321.8,105.1397 321.275,104.5317 320.894,103.8327 C320.505,103.1287 320.238,102.3627 320.094,101.5257 L323.635,101.5257 C323.763,102.0327 323.943,102.5127 324.177,102.9617 C324.408,103.4077 324.711,103.7927 325.067,104.1207 C325.431,104.4467 325.858,104.7037 326.357,104.8907 C326.857,105.0777 327.431,105.1707 328.087,105.1707 C328.523,105.1707 328.954,105.1277 329.379,105.0357 C329.803,104.9457 330.183,104.7957 330.522,104.5957 C330.856,104.3907 331.128,104.1267 331.333,103.7947 C331.537,103.4637 331.641,103.0597 331.641,102.5797 C331.641,101.9627 331.481,101.4207 331.162,100.9517 C330.848,100.4767 330.428,100.0477 329.907,99.6617 C329.385,99.2727 328.787,98.9077 328.122,98.5727 C327.45,98.2367 326.771,97.8997 326.081,97.5567 C325.386,97.2147 324.704,96.8597 324.037,96.4917 C323.369,96.1207 322.774,95.7037 322.253,95.2457 C321.731,94.7817 321.312,94.2637 320.992,93.6877 C320.677,93.1097 320.519,92.4477 320.519,91.6987 C320.519,90.8807 320.698,90.1267 321.059,89.4277 C321.421,88.7327 321.943,88.1297 322.633,87.6217 C323.321,87.1127 324.164,86.7127 325.156,86.4247 C326.151,86.1387 327.284,85.9937 328.553,85.9937 C329.606,85.9937 330.556,86.1387 331.405,86.4247 C332.254,86.7127 333.003,87.1057 333.651,87.5987 C334.302,88.0947 334.845,88.6777 335.29,89.3497 C335.735,90.0237 336.075,90.7467 336.309,91.5267 L333.087,91.5267 C332.904,91.0357 332.687,90.5727 332.444,90.1267 C332.201,89.6867 331.901,89.2957 331.537,88.9617 C331.176,88.6267 330.741,88.3597 330.234,88.1617 C329.727,87.9647 329.118,87.8667 328.407,87.8667 C327.742,87.8667 327.182,87.9537 326.723,88.1257 C326.264,88.2997 325.895,88.5167 325.613,88.7807 C325.329,89.0457 325.125,89.3417 325.002,89.6687 C324.881,89.9947 324.819,90.3167 324.819,90.6347 C324.819,91.1777 324.985,91.6757 325.313,92.1247 C325.638,92.5727 326.071,92.9837 326.612,93.3617 C327.157,93.7427 327.77,94.1067 328.449,94.4597 C329.132,94.8097 329.834,95.1627 330.552,95.5157 C331.269,95.8737 331.968,96.2437 332.659,96.6257 C333.345,97.0107 333.959,97.4337 334.501,97.9007 C335.042,98.3667 335.476,98.8827 335.805,99.4547 C336.132,100.0167 336.292,100.6577 336.292,101.3677 C336.292,102.2047 336.116,102.9787 335.767,103.6977 C335.415,104.4107 334.897,105.0357 334.21,105.5687 C333.519,106.0997 332.665,106.5177 331.648,106.8217 C330.63,107.1237 329.455,107.2747 328.127,107.2747"/>
    <polygon points="61.997 74.406 70.489 74.406 76.673 51.471 85.817 51.471 87.777 44.115 61.082 44.115 59.079 51.471 68.224 51.471"/>
    <path d="M99.9785 67.4407C95.6675 67.4407 93.3155 64.5857 93.3155 60.7327 93.3155 56.2317 96.7995 51.0817 102.112 51.0817 106.423 51.0817 108.775 53.9367 108.775 57.7917 108.775 62.2907 105.335 67.4407 99.9785 67.4407M99.2375 74.9687C109.82 74.9687 117.397 66.3577 117.397 57.1417 117.397 49.4357 111.519 43.5547 102.854 43.5547 92.2695 43.5547 84.6935 52.1657 84.6935 61.3817 84.6935 69.0827 90.5715 74.9687 99.2375 74.9687M131.859 74.969C136.562 74.969 140.393 73.757 143.093 71.075 145.229 68.955 146.752 66.012 147.84 62.03L152.674 44.115 144.138 44.115 139.61 60.777C138.958 63.198 138.173 64.711 137.041 65.795 135.996 66.833 134.558 67.397 132.947 67.397 129.899 67.397 128.201 65.708 128.201 62.983 128.201 61.987 128.374 61.076 128.636 60.127L132.947 44.115 124.412 44.115 120.233 59.522C119.796 61.163 119.534 62.853 119.534 64.368 119.534 71.031 124.02 74.969 131.859 74.969M162.259 58.6555L164.262 51.3855 168.835 51.3855C170.62 51.3855 171.883 51.7305 172.579 52.4245 173.103 52.9875 173.363 53.6365 173.363 54.4595 173.363 57.0545 170.882 58.6555 167.092 58.6555L162.259 58.6555zM149.543 74.4065L158.035 74.4065 160.517 65.2345 164.262 65.2345 168.311 74.4065 177.631 74.4065 172.927 64.1945C179.155 62.5055 182.073 58.5245 182.073 53.4635 182.073 51.0385 181.333 48.8755 179.721 47.2735 177.674 45.2405 174.322 44.1155 169.226 44.1155L157.729 44.1155 149.543 74.4065z"/>
    <polygon points="180.9 74.406 189.304 74.406 194.007 56.968 202.239 74.406 209.641 74.406 217.829 44.115 209.424 44.115 204.851 60.95 196.97 44.115 189.087 44.115"/>
    <polygon points="214.915 74.406 239.561 74.406 241.478 67.266 225.192 67.266 226.498 62.462 241.042 62.462 242.828 55.843 228.284 55.843 229.546 51.255 245.572 51.255 247.53 44.115 223.102 44.115"/>
    <polygon points="251.496 74.406 259.989 74.406 262.906 63.589 279.933 44.115 269.83 44.115 260.642 55.453 257.637 44.115 248.536 44.115 254.677 62.678"/>
    <path d="M297.69,59.218 L299.836,51.167 L302.988,51.167 C304.564,51.167 305.79,51.516 306.624,52.342 C307.192,52.909 307.497,53.648 307.497,54.475 C307.497,57.348 305.09,59.218 300.886,59.218 L297.69,59.218 Z M285.035,74.533 L293.574,74.533 L295.938,65.787 L300.974,65.787 C310.039,65.787 316.211,61.089 316.211,53.517 C316.211,50.993 315.423,48.905 313.803,47.296 C311.57,45.077 308.285,44.075 303.294,44.075 L293.266,44.075 L285.035,74.533 Z"/>
    <polygon points="314.683 74.534 323.179 74.534 331.414 44.075 322.918 44.075"/>
    <path d="M345.951,75.1428 C351.774,75.1428 355.804,72.7928 358.781,69.4438 L353.045,64.3938 C351.076,66.3538 349.148,67.4838 346.476,67.4838 C342.929,67.4838 340.347,65.0918 340.347,61.2188 C340.347,55.9108 344.418,51.1668 349.499,51.1668 C352.518,51.1668 354.446,52.6038 355.674,55.0828 L363.028,51.1668 C361.19,46.4698 356.853,43.4648 350.595,43.4648 C338.813,43.4648 331.457,52.8228 331.457,61.8288 C331.457,69.9638 337.456,75.1428 345.951,75.1428"/>
    <polygon points="360.537 74.534 369.077 74.534 370.916 67.614 376.216 62.785 380.636 74.534 389.833 74.534 383 57.434 397.452 44.075 386.637 44.075 373.98 56.261 377.308 44.075 368.771 44.075"/>
    <path d="M395.572,59.8255 C402.098,59.5645 405.074,56.9545 406.565,51.4295 L408.533,44.0755 L399.908,44.0755 L397.587,52.5585 L400.958,52.5585 C400.433,54.9095 398.682,56.3035 395.222,56.6505 L395.572,59.8255 Z"/>
    <polygon points="405.384 74.534 430.168 74.534 432.093 67.353 415.718 67.353 417.03 62.525 431.657 62.525 433.451 55.867 418.827 55.867 420.097 51.255 436.21 51.255 438.18 44.075 413.616 44.075"/>
    <polygon points="434.683 74.534 443.09 74.534 447.775 57.13 452.286 68.963 452.459 68.963 463.453 57.042 458.767 74.534 467.306 74.534 475.537 44.075 465.992 44.075 455.569 55.867 451.497 44.075 442.915 44.075"/>
  </g>
</svg>
